
<svg xmlns="http://www.w3.org/2000/svg" version="1.1" xmlns:xlink="http://www.w3.org/1999/xlink" preserveAspectRatio="none" x="0px" y="0px" width="1080px" height="1080px" viewBox="180 180 720 720">
<defs>
<g id="Layer0_0_FILL">
<path fill="#FDCA00" stroke="none" d="
M 219.3 179.55
Q 217.15 181.3 217.15 183.7 217.15 185.9 219.1 187.45 221 188.9 223.15 188.6 225.6 188.25 226.5 186 226.9 184.95 226.4 183.8 225.9 182.65 224.85 182.2 224.1 181.85 223.3 182.05 222.55 182.25 222.65 182.6 222.8 182.9 223.15 182.8 224.2 182.3 224.85 183.3 225.4 184.2 225 185.1 224.05 187.15 221.75 186.35 219.5 185.6 219.6 183.8 219.65 182.25 221.05 181 222.35 179.9 223.8 179.8
L 229.4 179.8 229.4 200.4
Q 229.4 204.2 228.6 204.7 228.25 205.2 226.2 205.2 226 205.3 226 205.6 226.15 205.9 226.8 205.9 227.8 205.8 238.3 205.8 238.7 205.65 238.7 205.3 238.5 205.1 238 205.1
L 236.3 205 235.4 204.8
Q 234.95 204.7 234.6 203.7 234.45 202.8 234.3 199.3
L 234.3 179.8
Q 238.9 179.8 240.7 180 241.95 180.2 242.45 180.65 242.85 180.95 243.1 181.7
L 243.2 182.9 243.3 183.1 243.7 183.2
Q 243.85 183.2 244 182.9
L 244.1 177.7
Q 244.1 177.5 243.6 177.5
L 241.4 177.8 224 177.8
Q 221.35 177.85 219.3 179.55 Z"/>
</g>
</defs>

<g transform="matrix( 16.19989013671875, 0, 0, 16.19989013671875, -3178.35,-2521.75) ">
<use xlink:href="#Layer0_0_FILL"/>
</g>
</svg>
